<svg width="22" height="22" viewBox="0 0 22 22" fill="none" xmlns="http://www.w3.org/2000/svg">
<path d="M9.76093 15.1703V16.8989C9.76093 18.3636 8.39845 19.5472 6.72091 19.5472C5.04336 19.5472 3.67236 18.3636 3.67236 16.8989V15.1703C3.67236 16.6349 5.03485 17.6738 6.72091 17.6738C8.39845 17.6738 9.76093 16.6264 9.76093 15.1703Z" stroke="#1E1E1E" stroke-width="1.27732" stroke-linecap="round" stroke-linejoin="round"/>
<path d="M9.75964 12.8282C9.75964 13.254 9.64042 13.6457 9.43604 13.9863C8.93363 14.8123 7.90325 15.3318 6.71109 15.3318C5.51893 15.3318 4.48855 14.8038 3.98614 13.9863C3.78177 13.6457 3.6626 13.254 3.6626 12.8282C3.6626 12.0959 4.0032 11.4402 4.54819 10.9634C5.10169 10.478 5.85954 10.1885 6.70257 10.1885C7.5456 10.1885 8.3035 10.4865 8.857 10.9634C9.41902 11.4317 9.75964 12.0959 9.75964 12.8282Z" stroke="#1E1E1E" stroke-width="1.27732" stroke-linecap="round" stroke-linejoin="round"/>
<path d="M9.76093 12.8282V15.17C9.76093 16.6346 8.39845 17.6735 6.72091 17.6735C5.04336 17.6735 3.67236 16.6261 3.67236 15.17V12.8282C3.67236 11.3636 5.03485 10.1799 6.72091 10.1799C7.56394 10.1799 8.32184 10.4779 8.87534 10.9548C9.42033 11.4317 9.76093 12.0959 9.76093 12.8282Z" stroke="#1E1E1E" stroke-width="1.27732" stroke-linecap="round" stroke-linejoin="round"/>
<path d="M19.3398 10.1543V11.9085C19.3398 12.3769 18.9652 12.76 18.4883 12.7771H16.8193C15.8996 12.7771 15.0566 12.1044 14.9799 11.1847C14.9288 10.6482 15.1332 10.1458 15.4908 9.79667C15.8059 9.47309 16.2402 9.28577 16.7171 9.28577H18.4883C18.9652 9.3028 19.3398 9.68596 19.3398 10.1543Z" stroke="#1E1E1E" stroke-width="1.27732" stroke-linecap="round" stroke-linejoin="round"/>
<path d="M2.30859 9.75415V8.05106C2.30859 5.73486 3.70513 4.11692 5.87657 3.84443C6.09797 3.81036 6.32789 3.79333 6.56632 3.79333H14.2302C14.4516 3.79333 14.6645 3.80184 14.8689 3.8359C17.0659 4.09137 18.4879 5.71783 18.4879 8.05106V9.28581H16.7167C16.2399 9.28581 15.8056 9.47313 15.4905 9.79672C15.1328 10.1458 14.9285 10.6483 14.9796 11.1847C15.0562 12.1044 15.8992 12.7771 16.8189 12.7771H18.4879V14.0119C18.4879 16.5665 16.7849 18.2696 14.2302 18.2696H12.1014" stroke="#1E1E1E" stroke-width="1.27732" stroke-linecap="round" stroke-linejoin="round"/>
</svg>
