<svg width="33" height="33" viewBox="0 0 33 33" fill="none" xmlns="http://www.w3.org/2000/svg">
<path d="M16.3642 8.33943C17.8902 8.33943 19.1268 9.57604 19.1268 11.1021C19.1268 12.6281 17.8902 13.8647 16.3642 13.8647C14.8382 13.8647 13.6015 12.6281 13.6015 11.1021C13.6015 9.57604 14.8382 8.33943 16.3642 8.33943ZM16.3642 20.1793C20.2713 20.1793 24.389 22.1 24.389 22.9419V24.389H8.33937V22.9419C8.33937 22.1 12.457 20.1793 16.3642 20.1793ZM16.3642 5.8399C13.4568 5.8399 11.102 8.19472 11.102 11.1021C11.102 14.0094 13.4568 16.3642 16.3642 16.3642C19.2715 16.3642 21.6263 14.0094 21.6263 11.1021C21.6263 8.19472 19.2715 5.8399 16.3642 5.8399ZM16.3642 17.6798C12.8517 17.6798 5.83984 19.4426 5.83984 22.9419V26.8886H26.8885V22.9419C26.8885 19.4426 19.8767 17.6798 16.3642 17.6798Z" fill="#ACB9FF"/>
</svg>
