<svg width="32" height="40" viewBox="0 0 32 40" fill="none" xmlns="http://www.w3.org/2000/svg">
<path d="M25.1848 12.2589L17.5505 19.9094L15.3355 22.1272L4.20612 33.2788L1.99194 31.061L13.1214 19.9094L15.337 17.6914L22.9714 10.041L25.1848 12.2589Z" fill="white"/>
<path d="M31.0408 18.1266C32.0362 19.1239 32.0362 20.7396 31.0408 21.7371L13.6699 39.1412C12.6724 40.1407 11.0535 40.1407 10.056 39.141L4.20605 33.2789L25.1848 12.2588L31.0408 18.1266Z" fill="url(#paint0_linear_1403_62363)"/>
<path d="M22.9713 10.0402L1.99188 31.0603L0.746393 29.8119C-0.248911 28.8144 -0.248781 27.1988 0.746682 26.2013L18.117 8.79742C19.1145 7.79806 20.7331 7.79799 21.7305 8.79726L22.9713 10.0402Z" fill="url(#paint1_linear_1403_62363)"/>
<path d="M27.6616 25.1984L20.0156 17.5596L17.7989 15.3434L6.65356 4.20763L8.87015 1.99219L20.0156 13.128L22.2322 15.3449L29.8782 22.9836L27.6616 25.1984Z" fill="white"/>
<path d="M21.7978 31.0581C20.8008 32.0541 19.1861 32.0541 18.1893 31.0581L0.7951 13.6773C-0.20387 12.6792 -0.20383 11.0594 0.795187 10.0613L6.6541 4.20801L27.6621 25.1988L21.7978 31.0581Z" fill="url(#paint2_linear_1403_62363)"/>
<path d="M29.8787 22.9845L8.87061 1.99302L10.1182 0.746821C11.1151 -0.249054 12.7298 -0.248923 13.7266 0.747109L31.1207 18.1275C32.1195 19.1254 32.1195 20.7448 31.1209 21.743L29.8787 22.9845Z" fill="url(#paint3_linear_1403_62363)"/>
<defs>
<linearGradient id="paint0_linear_1403_62363" x1="5.69751" y1="37.5003" x2="31.1375" y2="12.2104" gradientUnits="userSpaceOnUse">
<stop stop-color="#7AAFFF"/>
<stop offset="1" stop-color="#642DFF"/>
</linearGradient>
<linearGradient id="paint1_linear_1403_62363" x1="5.69731" y1="37.4995" x2="31.1373" y2="12.2096" gradientUnits="userSpaceOnUse">
<stop stop-color="#7AAFFF"/>
<stop offset="1" stop-color="#642DFF"/>
</linearGradient>
<linearGradient id="paint2_linear_1403_62363" x1="3.11609" y1="3.5711" x2="35.8934" y2="17.8186" gradientUnits="userSpaceOnUse">
<stop stop-color="#FF8DE6"/>
<stop offset="1" stop-color="#4C3FE7"/>
</linearGradient>
<linearGradient id="paint3_linear_1403_62363" x1="3.11593" y1="3.57143" x2="35.8933" y2="17.819" gradientUnits="userSpaceOnUse">
<stop stop-color="#FF8DE6"/>
<stop offset="1" stop-color="#4C3FE7"/>
</linearGradient>
</defs>
</svg>
