<svg width="36" height="40" viewBox="0 0 36 40" fill="none" xmlns="http://www.w3.org/2000/svg">
<path d="M10.8892 22.4725C10.7095 22.6507 10.5669 22.8627 10.4696 23.0962C10.3723 23.3298 10.3222 23.5803 10.3222 23.8333C10.3222 24.0864 10.3723 24.3369 10.4696 24.5704C10.5669 24.804 10.7095 25.016 10.8892 25.1942L16.6392 30.9442C16.8173 31.1238 17.0293 31.2664 17.2629 31.3637C17.4965 31.461 17.747 31.5111 18 31.5111C18.253 31.5111 18.5035 31.461 18.7371 31.3637C18.9707 31.2664 19.1827 31.1238 19.3608 30.9442L25.1108 25.1942C25.4717 24.8332 25.6745 24.3437 25.6745 23.8333C25.6745 23.3229 25.4717 22.8334 25.1108 22.4725C24.7499 22.1116 24.2604 21.9088 23.75 21.9088C23.2396 21.9088 22.7501 22.1116 22.3892 22.4725L19.9167 24.9642V2.74999C19.9167 2.24166 19.7147 1.75415 19.3553 1.39471C18.9958 1.03526 18.5083 0.833328 18 0.833328C17.4917 0.833328 17.0042 1.03526 16.6447 1.39471C16.2853 1.75415 16.0833 2.24166 16.0833 2.74999V24.9642L13.6108 22.4725C13.4327 22.2929 13.2207 22.1503 12.9871 22.053C12.7535 21.9556 12.503 21.9055 12.25 21.9055C11.997 21.9055 11.7465 21.9556 11.5129 22.053C11.2793 22.1503 11.0673 22.2929 10.8892 22.4725ZM29.5 14.25H25.6667C25.1583 14.25 24.6708 14.4519 24.3114 14.8114C23.9519 15.1708 23.75 15.6583 23.75 16.1667C23.75 16.675 23.9519 17.1625 24.3114 17.5219C24.6708 17.8814 25.1583 18.0833 25.6667 18.0833H29.5C30.0083 18.0833 30.4958 18.2853 30.8553 18.6447C31.2147 19.0042 31.4167 19.4917 31.4167 20V33.4167C31.4167 33.925 31.2147 34.4125 30.8553 34.772C30.4958 35.1314 30.0083 35.3333 29.5 35.3333H6.5C5.99167 35.3333 5.50416 35.1314 5.14471 34.772C4.78527 34.4125 4.58333 33.925 4.58333 33.4167V20C4.58333 19.4917 4.78527 19.0042 5.14471 18.6447C5.50416 18.2853 5.99167 18.0833 6.5 18.0833H10.3333C10.8417 18.0833 11.3292 17.8814 11.6886 17.5219C12.0481 17.1625 12.25 16.675 12.25 16.1667C12.25 15.6583 12.0481 15.1708 11.6886 14.8114C11.3292 14.4519 10.8417 14.25 10.3333 14.25H6.5C4.97501 14.25 3.51247 14.8558 2.43414 15.9341C1.3558 17.0125 0.75 18.475 0.75 20V33.4167C0.75 34.9417 1.3558 36.4042 2.43414 37.4825C3.51247 38.5609 4.97501 39.1667 6.5 39.1667H29.5C31.025 39.1667 32.4875 38.5609 33.5659 37.4825C34.6442 36.4042 35.25 34.9417 35.25 33.4167V20C35.25 18.475 34.6442 17.0125 33.5659 15.9341C32.4875 14.8558 31.025 14.25 29.5 14.25Z" fill="#748BFF"/>
</svg>
