<svg width="10" height="16" viewBox="0 0 10 16" fill="none" xmlns="http://www.w3.org/2000/svg">
<path d="M5.44103 6.73764C3.52414 6.23942 2.9077 5.72431 2.9077 4.92208C2.9077 4.00164 3.76059 3.35986 5.1877 3.35986C6.23129 3.35986 6.81898 3.70585 7.09773 4.27066C7.3187 4.71839 7.6913 5.13319 8.19058 5.13319V5.13319C8.72222 5.13319 9.15631 4.6793 8.95986 4.18528C8.53662 3.12094 7.49641 2.22522 6.12482 1.89053V0.910972C6.12482 0.444598 5.74675 0.0665283 5.28037 0.0665283H4.76548C4.2991 0.0665283 3.92103 0.444599 3.92103 0.910973V1.89053C2.28281 2.24519 0.965476 3.3092 0.965476 4.93897C0.965476 6.88964 2.57837 7.86075 4.93436 8.42653C7.04548 8.93319 7.4677 9.67631 7.4677 10.4616C7.4677 11.0443 7.05392 11.9732 5.1877 11.9732C3.96498 11.9732 3.26377 11.5894 2.92277 11.0153C2.67379 10.5961 2.29846 10.1999 1.81091 10.1999V10.1999C1.2691 10.1999 0.822554 10.6654 1.00599 11.1752C1.45465 12.4221 2.61061 13.1543 3.92103 13.4341V14.4221C3.92103 14.8885 4.2991 15.2665 4.76548 15.2665H5.28037C5.74675 15.2665 6.12482 14.8885 6.12482 14.4221V13.4341C7.77148 13.1216 9.40992 12.1843 9.40992 10.4532C9.40992 8.05497 7.35792 7.23586 5.44103 6.73764Z" fill="#1E1E1E"/>
</svg>
