<svg xmlns="http://www.w3.org/2000/svg" width="80" height="80" fill="none"><path fill="#1E1E1E" d="M65.549 57.875a34.902 34.902 0 0 1-3.404 6.187c-1.79 2.58-3.256 4.365-4.385 5.357-1.751 1.627-3.627 2.461-5.636 2.508-1.442 0-3.181-.414-5.206-1.256-2.031-.837-3.898-1.252-5.605-1.252-1.79 0-3.71.415-5.763 1.252-2.056.842-3.713 1.28-4.98 1.323-1.926.084-3.846-.774-5.763-2.575-1.223-1.079-2.754-2.927-4.587-5.547-1.966-2.797-3.583-6.04-4.85-9.738-1.356-3.994-2.036-7.861-2.036-11.605 0-4.29.916-7.989 2.753-11.089 1.443-2.49 3.364-4.454 5.767-5.896 2.403-1.442 5-2.177 7.796-2.224 1.53 0 3.537.479 6.03 1.42 2.487.942 4.083 1.42 4.783 1.42.524 0 2.297-.559 5.304-1.674 2.843-1.034 5.243-1.462 7.209-1.294 5.327.435 9.33 2.558 11.99 6.382-4.764 2.918-7.12 7.004-7.073 12.247.043 4.084 1.508 7.482 4.389 10.18a14.411 14.411 0 0 0 4.385 2.908 48.144 48.144 0 0 1-1.118 2.966ZM53.331 9.28c0 3.201-1.156 6.19-3.462 8.956-2.783 3.288-6.149 5.188-9.799 4.889a10.072 10.072 0 0 1-.073-1.213c0-3.073 1.323-6.361 3.673-9.05 1.173-1.361 2.666-2.493 4.475-3.396 1.806-.89 3.514-1.382 5.12-1.466.047.428.066.856.066 1.28Z" opacity=".7" style="mix-blend-mode:luminosity"/></svg>