<svg xmlns="http://www.w3.org/2000/svg" width="184" height="184" fill="none"><g filter="url(#a)"><mask id="b" fill="#fff"><path d="M154.783 113.629c2.811 1.416 6.26.292 7.462-2.617a76.005 76.005 0 0 0-14.641-80.821c-2.146-2.304-5.77-2.147-7.906.166-2.136 2.313-1.971 5.903.144 8.234a64.599 64.599 0 0 1 12.187 67.276c-1.163 2.926-.058 6.346 2.754 7.762Z"/></mask><path fill="#E2E2E2" fill-opacity=".3" stroke="#636363" stroke-opacity=".4" stroke-width="1.689" d="M154.783 113.629c2.811 1.416 6.26.292 7.462-2.617a76.005 76.005 0 0 0-14.641-80.821c-2.146-2.304-5.77-2.147-7.906.166-2.136 2.313-1.971 5.903.144 8.234a64.599 64.599 0 0 1 12.187 67.276c-1.163 2.926-.058 6.346 2.754 7.762Z" mask="url(#b)"/><mask id="d" fill="#fff"><path d="M154.862 113.471c2.815 1.409 3.973 4.847 2.357 7.548a76.003 76.003 0 0 1-92.416 31.948A76.005 76.005 0 0 1 18.709 61.89a76 76 0 0 1 43.958-50.001c2.904-1.215 6.142.42 7.136 3.407.994 2.987-.635 6.191-3.523 7.445a64.6 64.6 0 1 0 80.712 93.156c1.652-2.68 5.055-3.836 7.87-2.426Z"/></mask><path fill="url(#c)" stroke="#fff" stroke-opacity=".7" stroke-width="1.689" d="M154.862 113.471c2.815 1.409 3.973 4.847 2.357 7.548a76.003 76.003 0 0 1-92.416 31.948A76.005 76.005 0 0 1 18.709 61.89a76 76 0 0 1 43.958-50.001c2.904-1.215 6.142.42 7.136 3.407.994 2.987-.635 6.191-3.523 7.445a64.6 64.6 0 1 0 80.712 93.156c1.652-2.68 5.055-3.836 7.87-2.426Z" mask="url(#d)"/><mask id="e" fill="#fff"><path d="M69.541 15c-.937-2.794.566-5.838 3.42-6.576a76 76 0 0 1 66.747 14.415c2.294 1.85 2.406 5.243.4 7.402l-.495.533c-2.007 2.158-5.371 2.262-7.688.44a64.596 64.596 0 0 0-55.333-11.95c-2.862.703-5.883-.78-6.82-3.574l-.231-.69Z"/></mask><path fill="#D5DCFF" stroke="#748BFF" stroke-opacity=".5" stroke-width="1.689" d="M69.541 15c-.937-2.794.566-5.838 3.42-6.576a76 76 0 0 1 66.747 14.415c2.294 1.85 2.406 5.243.4 7.402l-.495.533c-2.007 2.158-5.371 2.262-7.688.44a64.596 64.596 0 0 0-55.333-11.95c-2.862.703-5.883-.78-6.82-3.574l-.231-.69Z" mask="url(#e)"/></g><defs><linearGradient id="c" x1="24.219" x2="164.163" y1="144.85" y2="5.477" gradientUnits="userSpaceOnUse"><stop stop-color="#7AAFFF"/><stop offset="1" stop-color="#642DFF"/></linearGradient><filter id="a" width="183.252" height="183.252" x=".374" y=".318" color-interpolation-filters="sRGB" filterUnits="userSpaceOnUse"><feFlood flood-opacity="0" result="BackgroundImageFix"/><feColorMatrix in="SourceAlpha" result="hardAlpha" values="0 0 0 0 0 0 0 0 0 0 0 0 0 0 0 0 0 0 127 0"/><feOffset dy="9.944"/><feGaussianBlur stdDeviation="7.813"/><feComposite in2="hardAlpha" operator="out"/><feColorMatrix values="0 0 0 0 0.0823529 0 0 0 0 0.0823529 0 0 0 0 0.0823529 0 0 0 0.08 0"/><feBlend in2="BackgroundImageFix" result="effect1_dropShadow_1369_63108"/><feBlend in="SourceGraphic" in2="effect1_dropShadow_1369_63108" result="shape"/></filter></defs></svg>