<svg width="80" height="80" viewBox="0 0 80 80" fill="none" xmlns="http://www.w3.org/2000/svg">
<g style="mix-blend-mode:luminosity" opacity="0.7">
<path fill-rule="evenodd" clip-rule="evenodd" d="M70.72 40.7276C70.72 38.4585 70.5164 36.2767 70.1382 34.1821H40V46.5603H57.2218C56.48 50.5603 54.2254 53.9494 50.8364 56.2185V64.2476H61.1782C67.2291 58.6767 70.72 50.473 70.72 40.7276Z" fill="#4285F4"/>
<path fill-rule="evenodd" clip-rule="evenodd" d="M39.9997 72.0001C48.6397 72.0001 55.8833 69.1346 61.1779 64.2473L50.836 56.2183C47.9706 58.1383 44.3051 59.2728 39.9997 59.2728C31.6651 59.2728 24.6106 53.6437 22.0942 46.0801H11.4033V54.371C16.6688 64.8292 27.4906 72.0001 39.9997 72.0001Z" fill="#34A853"/>
<path fill-rule="evenodd" clip-rule="evenodd" d="M22.0945 46.0803C21.4545 44.1603 21.0909 42.1094 21.0909 40.0003C21.0909 37.8912 21.4545 35.8403 22.0945 33.9203V25.6294H11.4036C9.23636 29.9494 8 34.8367 8 40.0003C8 45.1639 9.23636 50.0512 11.4036 54.3712L22.0945 46.0803Z" fill="#FBBC05"/>
<path fill-rule="evenodd" clip-rule="evenodd" d="M39.9997 20.7273C44.6979 20.7273 48.916 22.3418 52.2324 25.5127L61.4106 16.3345C55.8688 11.1709 48.6251 8 39.9997 8C27.4906 8 16.6688 15.1709 11.4033 25.6291L22.0942 33.92C24.6106 26.3564 31.6651 20.7273 39.9997 20.7273Z" fill="#EA4335"/>
</g>
</svg>
