<svg xmlns="http://www.w3.org/2000/svg" width="80" height="80" fill="none"><g fill-rule="evenodd" clip-rule="evenodd" opacity=".7" style="mix-blend-mode:luminosity"><path fill="#4285F4" d="M70.72 40.728c0-2.27-.204-4.451-.582-6.546H40V46.56h17.222c-.742 4-2.997 7.39-6.386 9.658v8.03h10.342c6.051-5.571 9.542-13.775 9.542-23.52Z"/><path fill="#34A853" d="M40 72c8.64 0 15.883-2.865 21.178-7.753l-10.342-8.029c-2.865 1.92-6.53 3.055-10.836 3.055-8.335 0-15.39-5.63-17.906-13.193h-10.69v8.291C16.668 64.829 27.49 72.001 40 72.001Z"/><path fill="#FBBC05" d="M22.095 46.08A19.236 19.236 0 0 1 21.09 40c0-2.109.363-4.16 1.003-6.08v-8.29h-10.69A31.988 31.988 0 0 0 8 40c0 5.164 1.236 10.051 3.404 14.371l10.69-8.29Z"/><path fill="#EA4335" d="M40 20.727c4.698 0 8.916 1.615 12.232 4.786l9.179-9.179C55.869 11.171 48.625 8 40 8c-12.51 0-23.331 7.17-28.597 17.63l10.691 8.29C24.611 26.356 31.665 20.727 40 20.727Z"/></g></svg>