<svg width="20" height="21" viewBox="0 0 20 21" fill="none" xmlns="http://www.w3.org/2000/svg">
<path fill-rule="evenodd" clip-rule="evenodd" d="M3.09992 9.49916C7.39488 7.46698 10.2589 6.12725 11.6919 5.47996C15.7834 3.63181 16.6335 3.31076 17.1877 3.30016C17.3095 3.29783 17.5821 3.33063 17.7586 3.48618C17.9076 3.61753 17.9486 3.79495 17.9683 3.91948C17.9879 4.04401 18.0123 4.32769 17.9929 4.54935C17.7712 7.07933 16.8118 13.2189 16.3237 16.0525C16.1172 17.2515 15.7105 17.6536 15.3169 17.6929C14.4613 17.7784 13.8116 17.0789 12.9829 16.489C11.6862 15.5659 10.9537 14.9912 9.69503 14.0904C8.24043 13.0494 9.18338 12.4773 10.0124 11.5422C10.2293 11.2975 13.999 7.57386 14.0719 7.23606C14.0811 7.19381 14.0895 7.03634 14.0034 6.95318C13.9172 6.87003 13.7901 6.89846 13.6983 6.92108C13.5683 6.95313 11.4968 8.44006 7.48389 11.3818C6.89591 11.8203 6.36333 12.034 5.88616 12.0228C5.36012 12.0104 4.34822 11.6998 3.59598 11.4342C2.67333 11.1085 1.94002 10.9363 2.00388 10.3831C2.03714 10.095 2.40248 9.80035 3.09992 9.49916Z" fill="white"/>
</svg>
