<svg width="38" height="38" viewBox="0 0 38 38" fill="none" xmlns="http://www.w3.org/2000/svg">
<path d="M28.5009 11.336C28.4059 11.3202 28.2951 11.3202 28.2001 11.336C26.0151 11.2569 24.2734 9.46769 24.2734 7.25102C24.2734 4.98685 26.0943 3.16602 28.3584 3.16602C30.6226 3.16602 32.4434 5.00269 32.4434 7.25102C32.4276 9.46769 30.6859 11.2569 28.5009 11.336Z" stroke="url(#paint0_linear_1541_23177)" stroke-linecap="round" stroke-linejoin="round"/>
<path d="M26.8703 22.8625C29.0394 23.2266 31.4303 22.8466 33.1086 21.7224C35.3411 20.2341 35.3411 17.7958 33.1086 16.3075C31.4144 15.1833 28.9919 14.8033 26.8228 15.1833" stroke="url(#paint1_linear_1541_23177)" stroke-linecap="round" stroke-linejoin="round"/>
<path d="M9.45373 11.336C9.54873 11.3202 9.65956 11.3202 9.75456 11.336C11.9396 11.2569 13.6812 9.46769 13.6812 7.25102C13.6812 4.98685 11.8604 3.16602 9.59623 3.16602C7.33207 3.16602 5.51123 5.00269 5.51123 7.25102C5.52706 9.46769 7.26873 11.2569 9.45373 11.336Z" stroke="url(#paint2_linear_1541_23177)" stroke-linecap="round" stroke-linejoin="round"/>
<path d="M11.0836 22.8625C8.91444 23.2266 6.52361 22.8466 4.84527 21.7224C2.61277 20.2341 2.61277 17.7958 4.84527 16.3075C6.53944 15.1833 8.96194 14.8033 11.1311 15.1833" stroke="url(#paint3_linear_1541_23177)" stroke-linecap="round" stroke-linejoin="round"/>
<path d="M18.999 23.1646C18.904 23.1488 18.7931 23.1488 18.6981 23.1646C16.5131 23.0855 14.7715 21.2963 14.7715 19.0796C14.7715 16.8155 16.5923 14.9946 18.8565 14.9946C21.1206 14.9946 22.9415 16.8313 22.9415 19.0796C22.9256 21.2963 21.184 23.1013 18.999 23.1646Z" stroke="url(#paint4_linear_1541_23177)" stroke-linecap="round" stroke-linejoin="round"/>
<path d="M14.3917 28.1523C12.1592 29.6406 12.1592 32.079 14.3917 33.5673C16.925 35.2615 21.0733 35.2615 23.6067 33.5673C25.8392 32.079 25.8392 29.6406 23.6067 28.1523C21.0892 26.474 16.925 26.474 14.3917 28.1523Z" stroke="url(#paint5_linear_1541_23177)" stroke-linecap="round" stroke-linejoin="round"/>
<defs>
<linearGradient id="paint0_linear_1541_23177" x1="24.7152" y1="10.6292" x2="32.2372" y2="3.13792" gradientUnits="userSpaceOnUse">
<stop stop-color="#7AAFFF"/>
<stop offset="1" stop-color="#642DFF"/>
</linearGradient>
<linearGradient id="paint1_linear_1541_23177" x1="27.2532" y1="22.3079" x2="34.5778" y2="15.0089" gradientUnits="userSpaceOnUse">
<stop stop-color="#7AAFFF"/>
<stop offset="1" stop-color="#642DFF"/>
</linearGradient>
<linearGradient id="paint2_linear_1541_23177" x1="5.95302" y1="10.6292" x2="13.475" y2="3.13791" gradientUnits="userSpaceOnUse">
<stop stop-color="#7AAFFF"/>
<stop offset="1" stop-color="#642DFF"/>
</linearGradient>
<linearGradient id="paint3_linear_1541_23177" x1="3.60134" y1="22.3079" x2="10.9259" y2="15.0089" gradientUnits="userSpaceOnUse">
<stop stop-color="#7AAFFF"/>
<stop offset="1" stop-color="#642DFF"/>
</linearGradient>
<linearGradient id="paint4_linear_1541_23177" x1="15.2133" y1="22.4578" x2="22.7352" y2="14.9665" gradientUnits="userSpaceOnUse">
<stop stop-color="#7AAFFF"/>
<stop offset="1" stop-color="#642DFF"/>
</linearGradient>
<linearGradient id="paint5_linear_1541_23177" x1="13.3967" y1="34.1507" x2="20.0161" y2="23.7248" gradientUnits="userSpaceOnUse">
<stop stop-color="#7AAFFF"/>
<stop offset="1" stop-color="#642DFF"/>
</linearGradient>
</defs>
</svg>
