<svg xmlns="http://www.w3.org/2000/svg" width="206" height="206" fill="none"><path fill="#748BFF" fill-rule="evenodd" d="M31.93 92.69c44.237-20.93 73.736-34.73 88.496-41.397 42.143-19.036 50.899-22.343 56.607-22.452 1.255-.024 4.062.314 5.88 1.916 1.536 1.353 1.958 3.18 2.16 4.463.202 1.283.454 4.205.254 6.488-2.284 26.059-12.165 89.296-17.193 118.483-2.127 12.35-6.315 16.49-10.37 16.896-8.813.88-15.504-6.325-24.04-12.401-13.356-9.508-20.901-15.427-33.865-24.705-14.983-10.722-5.27-16.615 3.268-26.246 2.235-2.521 41.062-40.875 41.814-44.354.094-.435.181-2.057-.706-2.914-.887-.856-2.197-.563-3.142-.33-1.34.33-22.676 15.645-64.009 45.946-6.056 4.516-11.542 6.716-16.457 6.601-5.418-.127-15.84-3.327-23.588-6.062-9.504-3.355-17.057-5.129-16.399-10.826.343-2.968 4.106-6.003 11.29-9.105Z" clip-rule="evenodd" opacity=".8"/></svg>