<svg xmlns="http://www.w3.org/2000/svg" width="316" height="316" fill="none"><path fill="#748BFF" fill-rule="evenodd" d="M48.979 142.186c67.86-32.108 113.111-53.276 135.752-63.503 64.646-29.201 78.079-34.274 86.834-34.441 1.926-.037 6.231.481 9.02 2.939 2.355 2.075 3.003 4.879 3.313 6.846.311 1.968.697 6.45.39 9.952-3.503 39.974-18.662 136.979-26.373 181.75-3.263 18.945-9.688 25.297-15.909 25.918-13.518 1.351-23.783-9.702-36.876-19.022-20.487-14.585-32.062-23.664-51.948-37.897-22.983-16.447-8.084-25.487 5.013-40.261 3.428-3.867 62.989-62.701 64.142-68.038.144-.668.278-3.156-1.083-4.469-1.362-1.314-3.37-.865-4.82-.508-2.055.507-34.784 24-98.188 70.48-9.291 6.928-17.705 10.304-25.245 10.127-8.311-.195-24.299-5.104-36.184-9.299-14.578-5.147-26.165-7.867-25.156-16.607.526-4.553 6.298-9.208 17.318-13.967Z" clip-rule="evenodd" opacity=".2"/></svg>