<svg width="15" height="15" viewBox="0 0 15 15" fill="none" xmlns="http://www.w3.org/2000/svg">
<path fill-rule="evenodd" clip-rule="evenodd" d="M14.4347 4.644V4.647C14.8098 5.55 15.0005 6.50957 15.0005 7.5C15.0005 11.6344 11.6349 15 7.50049 15C3.36608 15 0.000488281 11.6344 0.000488281 7.5C0.000488281 3.36557 3.36608 0 7.50049 0C8.28174 0 9.05367 0.121719 9.7886 0.359571C9.79164 0.359571 9.79164 0.362567 9.79164 0.362567H9.80103C9.81154 0.366155 9.82005 0.372555 9.82885 0.379139L9.83714 0.385243L9.84069 0.387703L9.84468 0.390255L9.84683 0.391513L9.85119 0.393862C9.86703 0.403294 9.88589 0.406291 9.90135 0.41872C9.90135 0.41872 9.90135 0.419737 9.90194 0.420588C9.90231 0.421198 9.90305 0.421716 9.90431 0.421716C9.92118 0.438898 9.93331 0.456099 9.94707 0.475575L9.95107 0.48129C9.95292 0.483713 9.95484 0.486006 9.95684 0.488263L9.9612 0.493109C9.96513 0.497418 9.96905 0.501728 9.97245 0.506518C9.97511 0.51018 9.97748 0.514138 9.97933 0.518577C9.98436 0.527362 9.98762 0.536943 9.99006 0.546949L9.99131 0.552535L9.99272 0.559359L9.99479 0.571714L9.99768 0.579612L10.0008 0.587769L10.001 0.588379C10.0062 0.601881 10.0115 0.615845 10.0137 0.631288C10.0137 0.636393 10.013 0.64159 10.0123 0.646973V0.649451C10.0115 0.656461 10.0106 0.663878 10.0106 0.671997C10.0106 0.700277 10.0077 0.725135 10.0012 0.753433V0.756429C9.9976 0.766953 9.99124 0.776534 9.9851 0.785633C9.98029 0.792847 9.9757 0.799746 9.97289 0.80657C9.9635 0.825436 9.95706 0.844283 9.94463 0.859708C9.54432 1.34743 9.32577 1.95686 9.32577 2.58171C9.32577 4.07828 10.5442 5.29715 12.0412 5.29715C12.7475 5.29715 13.4161 5.02543 13.9256 4.53171C13.9298 4.52822 13.934 4.52524 13.9383 4.52256C13.9443 4.51871 13.9504 4.51547 13.9565 4.51226C13.9618 4.50944 13.9671 4.50663 13.9724 4.50343C13.9912 4.491 14.0037 4.47857 14.0225 4.46914H14.0289C14.0508 4.46013 14.0761 4.45671 14.1009 4.45372C14.1163 4.45372 14.1322 4.44428 14.1476 4.44728C14.1665 4.44728 14.182 4.45372 14.2007 4.45671C14.2226 4.45971 14.2445 4.46271 14.2633 4.46914C14.2715 4.47308 14.2783 4.4785 14.2856 4.48442L14.2896 4.48771L14.2977 4.494C14.3225 4.50643 14.3443 4.51886 14.3662 4.53772C14.3662 4.53952 14.3662 4.54024 14.3668 4.54053C14.3673 4.54072 14.368 4.54072 14.3692 4.54072C14.3816 4.55615 14.391 4.57499 14.4005 4.59386C14.4099 4.60928 14.4254 4.61872 14.4318 4.63756C14.4318 4.63945 14.4318 4.6403 14.4323 4.64119L14.4332 4.64237L14.4347 4.644ZM2.18791 8.43728C2.18791 9.12814 2.74766 9.68743 3.43806 9.68743C4.12846 9.68743 4.68821 9.12814 4.68821 8.43728C4.68821 7.74643 4.12846 7.18715 3.43806 7.18715C2.74722 7.18715 2.18791 7.74686 2.18791 8.43728ZM5.31262 3.12472C4.79704 3.12472 4.37534 3.54686 4.37534 4.06243C4.37534 4.57801 4.79748 5.00015 5.31262 4.99972C5.82864 4.99972 6.25034 4.57801 6.25034 4.06243C6.25034 3.54642 5.8282 3.12472 5.31262 3.12472ZM7.18806 11.5624C7.18806 12.0784 7.60976 12.5001 8.12534 12.5001C8.64092 12.5001 9.06306 12.078 9.06306 11.5624C9.06306 11.0469 8.64092 10.6251 8.12534 10.6251C7.60976 10.6251 7.18806 11.0469 7.18806 11.5624ZM7.50049 7.34357C7.50049 8.03443 8.06024 8.59371 8.75064 8.59371C9.44104 8.59371 10.0003 8.03443 10.0008 7.34357C10.0008 6.65272 9.44104 6.09344 8.75064 6.09344C8.05979 6.09344 7.50049 6.65315 7.50049 7.34357Z" fill="white"/>
</svg>
