<svg xmlns="http://www.w3.org/2000/svg" width="24" height="24" fill="none"><path stroke="url(#a)" stroke-linecap="round" stroke-linejoin="round" d="M9 11v6l2-2"/><path stroke="url(#b)" stroke-linecap="round" stroke-linejoin="round" d="m9 17-2-2"/><path stroke="url(#c)" stroke-linecap="round" stroke-linejoin="round" d="M22 10v5c0 5-2 7-7 7H9c-5 0-7-2-7-7V9c0-5 2-7 7-7h5"/><path stroke="url(#d)" stroke-linecap="round" stroke-linejoin="round" d="M22 10h-4c-3 0-4-1-4-4V2l8 8Z"/><defs><linearGradient id="a" x1="9.108" x2="12.412" y1="16.481" y2="15.385" gradientUnits="userSpaceOnUse"><stop stop-color="#7AAFFF"/><stop offset="1" stop-color="#642DFF"/></linearGradient><linearGradient id="b" x1="7.108" x2="8.949" y1="16.828" y2="14.994" gradientUnits="userSpaceOnUse"><stop stop-color="#7AAFFF"/><stop offset="1" stop-color="#642DFF"/></linearGradient><linearGradient id="c" x1="3.082" x2="21.496" y1="20.27" y2="1.932" gradientUnits="userSpaceOnUse"><stop stop-color="#7AAFFF"/><stop offset="1" stop-color="#642DFF"/></linearGradient><linearGradient id="d" x1="14.433" x2="21.798" y1="9.308" y2="1.973" gradientUnits="userSpaceOnUse"><stop stop-color="#7AAFFF"/><stop offset="1" stop-color="#642DFF"/></linearGradient></defs></svg>