<svg width="24" height="24" viewBox="0 0 24 24" fill="none" xmlns="http://www.w3.org/2000/svg">
<path d="M18.4698 16.8305L18.8598 19.9905C18.9598 20.8205 18.0698 21.4005 17.3598 20.9705L13.1698 18.4805C12.7098 18.4805 12.2599 18.4505 11.8199 18.3905C12.5599 17.5205 12.9998 16.4205 12.9998 15.2305C12.9998 12.3905 10.5398 10.0905 7.49985 10.0905C6.33985 10.0905 5.26985 10.4205 4.37985 11.0005C4.34985 10.7505 4.33984 10.5005 4.33984 10.2405C4.33984 5.69048 8.28985 2.00049 13.1698 2.00049C18.0498 2.00049 21.9998 5.69048 21.9998 10.2405C21.9998 12.9405 20.6098 15.3305 18.4698 16.8305Z" stroke="#748BFF" stroke-linecap="round" stroke-linejoin="round"/>
<path d="M13.0005 15.23C13.0005 16.42 12.5605 17.5201 11.8205 18.3901C10.8305 19.5901 9.26049 20.36 7.50049 20.36L4.89049 21.91C4.45049 22.18 3.89049 21.81 3.95049 21.3L4.20049 19.3301C2.86049 18.4001 2.00049 16.91 2.00049 15.23C2.00049 13.47 2.94049 11.9201 4.38049 11.0001C5.27049 10.4201 6.34049 10.0901 7.50049 10.0901C10.5405 10.0901 13.0005 12.39 13.0005 15.23Z" stroke="#748BFF" stroke-linecap="round" stroke-linejoin="round"/>
</svg>
