<svg width="120" height="40" viewBox="0 0 120 40" fill="none" xmlns="http://www.w3.org/2000/svg">
<g clip-path="url(#clip0_1633_131506)">
<path d="M25.1848 12.2589L17.5505 19.9094L15.3355 22.1272L4.20612 33.2788L1.99194 31.061L13.1214 19.9094L15.337 17.6914L22.9714 10.041L25.1848 12.2589Z" fill="white"/>
<path d="M31.0408 18.1266C32.0362 19.1239 32.0362 20.7396 31.0408 21.7371L13.6699 39.1412C12.6724 40.1407 11.0535 40.1407 10.056 39.141L4.20605 33.2789L25.1848 12.2588L31.0408 18.1266Z" fill="url(#paint0_linear_1633_131506)"/>
<path d="M22.9713 10.0402L1.99188 31.0603L0.746393 29.8119C-0.248911 28.8144 -0.248781 27.1988 0.746682 26.2013L18.117 8.79742C19.1145 7.79806 20.7331 7.79799 21.7305 8.79726L22.9713 10.0402Z" fill="url(#paint1_linear_1633_131506)"/>
<path d="M27.6616 25.1984L20.0156 17.5596L17.7989 15.3434L6.65356 4.20763L8.87015 1.99219L20.0156 13.128L22.2322 15.3449L29.8782 22.9836L27.6616 25.1984Z" fill="white"/>
<path d="M21.7978 31.0581C20.8008 32.0541 19.1861 32.0541 18.1893 31.0581L0.7951 13.6773C-0.20387 12.6792 -0.20383 11.0594 0.795187 10.0613L6.6541 4.20801L27.6621 25.1988L21.7978 31.0581Z" fill="url(#paint2_linear_1633_131506)"/>
<path d="M29.8787 22.9845L8.87061 1.99302L10.1182 0.746821C11.1151 -0.249054 12.7298 -0.248923 13.7266 0.747109L31.1207 18.1275C32.1195 19.1254 32.1195 20.7448 31.1209 21.743L29.8787 22.9845Z" fill="url(#paint3_linear_1633_131506)"/>
<path d="M45.1211 28.3618C43.8814 28.3618 42.7656 28.0897 41.7739 27.5458C40.7975 26.9863 40.0305 26.2168 39.4725 25.2376C38.9147 24.2585 38.6357 23.1549 38.6357 21.927C38.6357 20.6992 38.9147 19.5956 39.4725 18.6163C40.0305 17.6371 40.7975 16.8755 41.7739 16.3315C42.7656 15.772 43.8814 15.4922 45.1211 15.4922C46.3765 15.4922 47.4922 15.772 48.4684 16.3315C49.4448 16.8755 50.2042 17.6371 50.7465 18.6163C51.289 19.5801 51.5601 20.6836 51.5601 21.927C51.5601 22.2845 51.5368 22.6497 51.4903 23.0227H42.0296C42.2154 23.7533 42.5797 24.3206 43.122 24.7247C43.6645 25.1288 44.3308 25.331 45.1211 25.331C45.6481 25.331 46.1284 25.2376 46.5623 25.0511C47.0117 24.849 47.3605 24.5849 47.6083 24.2585H51.2114C50.7775 25.5174 50.0105 26.5199 48.9102 27.266C47.8099 27.9965 46.5468 28.3618 45.1211 28.3618ZM48.2361 20.7613C48.05 20.0618 47.686 19.5177 47.1435 19.1292C46.6011 18.7251 45.9271 18.5231 45.1211 18.5231C44.3462 18.5231 43.6877 18.7251 43.1454 19.1292C42.6184 19.5177 42.2543 20.0618 42.0527 20.7613H48.2361Z" fill="white"/>
<path d="M60.8576 28.3614C59.2925 28.3614 57.8822 28.0039 56.627 27.2889C55.3718 26.5584 54.3878 25.5559 53.6749 24.2813C52.9775 22.9913 52.6289 21.5457 52.6289 19.9448C52.6289 18.3439 52.9775 16.9062 53.6749 15.6317C54.3878 14.3416 55.3718 13.3391 56.627 12.6241C57.8822 11.8936 59.2925 11.5283 60.8576 11.5283C62.2059 11.5283 63.438 11.7926 64.5536 12.321C65.6849 12.8495 66.6303 13.6033 67.3896 14.5825C68.149 15.5617 68.6603 16.6964 68.9238 17.9864H65.2743C64.9643 17.0694 64.4142 16.3389 63.6239 15.7949C62.849 15.2509 61.9503 14.9789 60.9274 14.9789C60.0287 14.9789 59.2227 15.1965 58.51 15.6317C57.8126 16.0513 57.2624 16.642 56.8595 17.4036C56.4566 18.1497 56.2551 18.9968 56.2551 19.9448C56.2551 20.8931 56.4566 21.7479 56.8595 22.5095C57.2624 23.2556 57.8126 23.8461 58.51 24.2813C59.2227 24.7011 60.0287 24.9109 60.9274 24.9109C61.9658 24.9109 62.88 24.6232 63.6703 24.0482C64.4761 23.4731 65.0341 22.7038 65.3441 21.74H68.9471C68.6991 23.0613 68.1954 24.227 67.4361 25.2372C66.6922 26.232 65.747 27.0014 64.6002 27.5454C63.469 28.0893 62.2214 28.3614 60.8576 28.3614Z" fill="white"/>
<path d="M76.0908 28.3618C74.8819 28.3618 73.8049 28.082 72.8597 27.5224C71.9143 26.9629 71.1783 26.1935 70.6513 25.2143C70.1399 24.2351 69.8843 23.1393 69.8843 21.927C69.8843 20.6836 70.1478 19.5722 70.6746 18.5931C71.2169 17.6138 71.9608 16.8522 72.9062 16.3082C73.8514 15.7642 74.9131 15.4922 76.0908 15.4922C77.6405 15.4922 78.9731 15.9896 80.0889 16.9843L80.2052 15.7487H83.0877V28.1054H80.2052L80.0889 26.8697C79.5466 27.3515 78.9345 27.7245 78.2526 27.9888C77.5707 28.2374 76.8502 28.3618 76.0908 28.3618ZM73.2548 21.927C73.2548 22.8906 73.5569 23.6833 74.1614 24.3051C74.7813 24.9268 75.5716 25.2376 76.5323 25.2376C77.4777 25.2376 78.2526 24.9268 78.8569 24.3051C79.4768 23.6833 79.7868 22.8906 79.7868 21.927C79.7868 20.9633 79.4768 20.1706 78.8569 19.549C78.2526 18.9272 77.4777 18.6163 76.5323 18.6163C75.5716 18.6163 74.7813 18.9272 74.1614 19.549C73.5569 20.1706 73.2548 20.9633 73.2548 21.927Z" fill="white"/>
<path d="M85.7786 15.749H88.8703L88.9863 17.1246C89.4049 16.6117 89.9008 16.2231 90.4741 15.9589C91.0475 15.6946 91.6751 15.5625 92.357 15.5625C92.8064 15.5625 93.2791 15.6247 93.7749 15.749V18.8265C93.186 18.7178 92.7135 18.6633 92.357 18.6633C91.3497 18.6633 90.5517 18.951 89.9627 19.526C89.3892 20.0854 89.1026 20.8704 89.1026 21.8808V28.1058H85.7786V15.749Z" fill="white"/>
<path d="M100.255 28.3618C99.0619 28.3618 97.9926 28.082 97.0474 27.5224C96.1175 26.9474 95.3969 26.1702 94.8854 25.1909C94.3741 24.2118 94.1184 23.1238 94.1184 21.927C94.1184 20.6991 94.3819 19.5956 94.9087 18.6163C95.4356 17.6371 96.1639 16.8755 97.0938 16.3315C98.0236 15.7719 99.0774 15.4922 100.255 15.4922C101.665 15.4922 102.905 15.904 103.974 16.7278V11.7852H107.298V28.1054H104.416L104.3 26.8697C103.757 27.3515 103.138 27.7245 102.44 27.9888C101.758 28.2374 101.03 28.3618 100.255 28.3618ZM97.4658 21.927C97.4658 22.8906 97.7679 23.6832 98.3724 24.305C98.9921 24.9268 99.7748 25.2375 100.72 25.2375C101.681 25.2375 102.463 24.9268 103.068 24.305C103.688 23.6832 103.998 22.8906 103.998 21.927C103.998 20.9632 103.688 20.1706 103.068 19.549C102.463 18.9272 101.681 18.6163 100.72 18.6163C99.7748 18.6163 98.9921 18.9272 98.3724 19.549C97.7679 20.1706 97.4658 20.9632 97.4658 21.927Z" fill="white"/>
<path d="M114.453 28.3385C112.888 28.3385 111.625 27.9733 110.664 27.2427C109.703 26.4967 109.192 25.4863 109.13 24.2118H112.454C112.485 24.647 112.679 24.9811 113.035 25.2143C113.407 25.4476 113.903 25.564 114.523 25.564C115.112 25.564 115.584 25.4631 115.941 25.261C116.297 25.059 116.475 24.7869 116.475 24.4449C116.475 24.1031 116.305 23.8465 115.964 23.6756C115.623 23.5045 114.964 23.3492 113.988 23.2093C112.361 22.9917 111.168 22.5799 110.408 21.9736C109.649 21.3518 109.269 20.497 109.269 19.409C109.269 18.2122 109.742 17.2641 110.687 16.5647C111.648 15.8497 112.896 15.4922 114.43 15.4922C115.375 15.4922 116.227 15.6632 116.987 16.0051C117.746 16.3315 118.343 16.7978 118.777 17.404C119.226 17.9945 119.474 18.6785 119.521 19.4556H116.313C116.251 19.067 116.057 18.7718 115.731 18.5697C115.406 18.3676 114.957 18.2667 114.383 18.2667C113.81 18.2667 113.368 18.3599 113.058 18.5463C112.764 18.7174 112.617 18.9738 112.617 19.3158C112.617 19.6577 112.803 19.9297 113.174 20.1318C113.546 20.3183 114.205 20.4738 115.15 20.5981C116.7 20.7845 117.862 21.1886 118.637 21.8104C119.427 22.4167 119.823 23.2715 119.823 24.3751C119.823 25.5874 119.327 26.551 118.335 27.266C117.343 27.981 116.049 28.3385 114.453 28.3385Z" fill="white"/>
</g>
<defs>
<linearGradient id="paint0_linear_1633_131506" x1="5.69751" y1="37.5003" x2="31.1375" y2="12.2104" gradientUnits="userSpaceOnUse">
<stop stop-color="#7AAFFF"/>
<stop offset="1" stop-color="#642DFF"/>
</linearGradient>
<linearGradient id="paint1_linear_1633_131506" x1="5.69731" y1="37.4995" x2="31.1373" y2="12.2096" gradientUnits="userSpaceOnUse">
<stop stop-color="#7AAFFF"/>
<stop offset="1" stop-color="#642DFF"/>
</linearGradient>
<linearGradient id="paint2_linear_1633_131506" x1="3.11609" y1="3.5711" x2="35.8934" y2="17.8186" gradientUnits="userSpaceOnUse">
<stop stop-color="#FF8DE6"/>
<stop offset="1" stop-color="#4C3FE7"/>
</linearGradient>
<linearGradient id="paint3_linear_1633_131506" x1="3.11593" y1="3.57143" x2="35.8933" y2="17.819" gradientUnits="userSpaceOnUse">
<stop stop-color="#FF8DE6"/>
<stop offset="1" stop-color="#4C3FE7"/>
</linearGradient>
<clipPath id="clip0_1633_131506">
<rect width="120" height="40" fill="white"/>
</clipPath>
</defs>
</svg>
