<svg xmlns="http://www.w3.org/2000/svg" width="120" height="40" fill="none"><g clip-path="url(#a)"><path fill="#fff" d="m25.185 12.259-7.634 7.65-2.215 2.218L4.205 33.28 1.992 31.06l11.13-11.152 2.215-2.218 7.634-7.65 2.214 2.218Z"/><path fill="url(#b)" d="M31.04 18.126a2.556 2.556 0 0 1 0 3.61L13.67 39.142c-.998 1-2.617 1-3.614 0l-5.85-5.862 20.979-21.02 5.856 5.867Z"/><path fill="url(#c)" d="M22.971 10.04 1.991 31.06.747 29.813a2.556 2.556 0 0 1 0-3.61L18.118 8.798c.997-1 2.616-1 3.613 0l1.241 1.243Z"/><path fill="#fff" d="m27.662 25.199-7.646-7.64-2.217-2.215L6.654 4.208 8.87 1.992l11.146 11.136 2.216 2.217 7.646 7.639-2.216 2.215Z"/><path fill="url(#d)" d="M21.798 31.058a2.552 2.552 0 0 1-3.609 0L.795 13.678a2.556 2.556 0 0 1 0-3.616l5.86-5.854L27.661 25.2l-5.864 5.86Z"/><path fill="url(#e)" d="M29.879 22.985 8.87 1.992 10.118.747a2.552 2.552 0 0 1 3.609 0l17.394 17.38a2.556 2.556 0 0 1 0 3.616l-1.242 1.242Z"/><path fill="#1E1E1E" d="M45.121 28.362c-1.24 0-2.355-.272-3.347-.816a6.087 6.087 0 0 1-2.302-2.308c-.557-.98-.836-2.083-.836-3.311 0-1.228.279-2.331.836-3.31a5.92 5.92 0 0 1 2.302-2.286c.992-.559 2.107-.839 3.347-.839 1.255 0 2.371.28 3.347.84a5.76 5.76 0 0 1 2.278 2.284c.543.964.814 2.068.814 3.311 0 .358-.023.723-.07 1.096h-9.46c.185.73.55 1.298 1.092 1.702.542.404 1.209.606 2 .606.526 0 1.006-.093 1.44-.28.45-.202.799-.466 1.046-.792h3.603a5.843 5.843 0 0 1-2.3 3.007c-1.101.73-2.364 1.096-3.79 1.096Zm3.115-7.6c-.186-.7-.55-1.244-1.092-1.633-.543-.404-1.217-.606-2.023-.606-.775 0-1.433.202-1.976.606-.527.389-.89.933-1.092 1.632h6.183ZM60.858 28.362c-1.566 0-2.976-.358-4.231-1.073a7.85 7.85 0 0 1-2.952-3.008c-.697-1.29-1.046-2.735-1.046-4.336 0-1.6.349-3.039 1.046-4.313a7.643 7.643 0 0 1 2.952-3.008c1.255-.73 2.665-1.095 4.23-1.095 1.349 0 2.581.264 3.697.792a7.614 7.614 0 0 1 2.836 2.262c.759.979 1.27 2.114 1.534 3.404h-3.65a4.24 4.24 0 0 0-1.65-2.192c-.775-.544-1.674-.816-2.697-.816-.898 0-1.704.218-2.417.653a4.44 4.44 0 0 0-1.65 1.772c-.403.746-.605 1.593-.605 2.541s.202 1.803.604 2.565a4.653 4.653 0 0 0 1.651 1.771c.713.42 1.519.63 2.417.63 1.039 0 1.953-.288 2.743-.863a4.423 4.423 0 0 0 1.674-2.308h3.603c-.248 1.322-.752 2.487-1.51 3.497a7.491 7.491 0 0 1-2.837 2.309c-1.131.544-2.379.816-3.742.816ZM76.09 28.362c-1.208 0-2.285-.28-3.23-.84a5.852 5.852 0 0 1-2.209-2.308c-.511-.979-.767-2.075-.767-3.287 0-1.243.264-2.355.79-3.334a5.85 5.85 0 0 1 2.232-2.285c.945-.544 2.007-.816 3.185-.816 1.55 0 2.882.498 3.998 1.492l.116-1.235h2.883v12.356h-2.883l-.116-1.235a6.014 6.014 0 0 1-1.836 1.119 6.261 6.261 0 0 1-2.162.373Zm-2.835-6.435c0 .964.302 1.756.906 2.378.62.622 1.41.933 2.371.933.946 0 1.72-.311 2.325-.933.62-.622.93-1.414.93-2.378 0-.964-.31-1.756-.93-2.378-.604-.622-1.38-.933-2.325-.933-.96 0-1.75.311-2.37.933-.605.622-.907 1.414-.907 2.378ZM85.779 15.748h3.091l.116 1.376a4.144 4.144 0 0 1 1.488-1.166 4.443 4.443 0 0 1 1.883-.396c.45 0 .922.062 1.418.187v3.077c-.589-.109-1.062-.163-1.418-.163-1.007 0-1.805.288-2.394.863-.574.559-.86 1.344-.86 2.354v6.225h-3.324V15.748ZM100.255 28.362c-1.193 0-2.262-.28-3.208-.84a5.902 5.902 0 0 1-2.162-2.331c-.51-.98-.767-2.067-.767-3.264 0-1.228.264-2.331.79-3.31a5.738 5.738 0 0 1 2.186-2.286c.93-.56 1.983-.839 3.161-.839 1.41 0 2.65.412 3.719 1.236v-4.943h3.324v16.32h-2.882l-.116-1.235a5.948 5.948 0 0 1-1.86 1.119 6.33 6.33 0 0 1-2.185.373Zm-2.79-6.435c0 .964.303 1.756.907 2.378.62.622 1.403.933 2.348.933.961 0 1.743-.311 2.348-.933.62-.622.93-1.414.93-2.378 0-.964-.31-1.756-.93-2.378-.605-.622-1.387-.933-2.348-.933-.945 0-1.728.311-2.348.933-.604.622-.906 1.414-.906 2.378ZM114.453 28.338c-1.565 0-2.828-.365-3.789-1.095-.961-.746-1.472-1.757-1.534-3.031h3.324c.031.435.225.77.581 1.002.372.234.868.35 1.488.35.589 0 1.061-.1 1.418-.303.356-.202.534-.474.534-.816 0-.342-.17-.599-.511-.77-.341-.17-1-.326-1.976-.466-1.627-.217-2.82-.63-3.58-1.235-.759-.622-1.139-1.477-1.139-2.565 0-1.197.473-2.145 1.418-2.844.961-.715 2.209-1.073 3.743-1.073.945 0 1.797.171 2.557.513.759.326 1.356.793 1.79 1.399.449.59.697 1.274.744 2.052h-3.208a1.22 1.22 0 0 0-.582-.886c-.325-.202-.774-.303-1.348-.303-.573 0-1.015.093-1.325.28a.835.835 0 0 0-.441.769c0 .342.186.614.557.816.372.186 1.031.342 1.976.466 1.55.187 2.712.59 3.487 1.212.79.607 1.186 1.462 1.186 2.565 0 1.212-.496 2.176-1.488 2.891-.992.715-2.286 1.073-3.882 1.073Z"/></g><defs><linearGradient id="b" x1="5.698" x2="31.137" y1="37.5" y2="12.21" gradientUnits="userSpaceOnUse"><stop stop-color="#7AAFFF"/><stop offset="1" stop-color="#642DFF"/></linearGradient><linearGradient id="c" x1="5.697" x2="31.137" y1="37.5" y2="12.21" gradientUnits="userSpaceOnUse"><stop stop-color="#7AAFFF"/><stop offset="1" stop-color="#642DFF"/></linearGradient><linearGradient id="d" x1="3.116" x2="35.893" y1="3.571" y2="17.819" gradientUnits="userSpaceOnUse"><stop stop-color="#FF8DE6"/><stop offset="1" stop-color="#4C3FE7"/></linearGradient><linearGradient id="e" x1="3.116" x2="35.893" y1="3.571" y2="17.819" gradientUnits="userSpaceOnUse"><stop stop-color="#FF8DE6"/><stop offset="1" stop-color="#4C3FE7"/></linearGradient><clipPath id="a"><path fill="#fff" d="M0 0h120v40H0z"/></clipPath></defs></svg>