<svg width="34" height="34" viewBox="0 0 34 34" fill="none" xmlns="http://www.w3.org/2000/svg">
<path d="M17.0283 4.1225C12.3392 4.1225 8.52834 7.93333 8.52834 12.6225V16.7167C8.52834 17.5808 8.16 18.8983 7.72084 19.635L6.09167 22.3408C5.08584 24.0125 5.78 25.8683 7.62167 26.4917C13.7275 28.5317 20.315 28.5317 26.4208 26.4917C28.135 25.925 28.8858 23.8992 27.9508 22.3408L26.3217 19.635C25.8967 18.8983 25.5283 17.5808 25.5283 16.7167V12.6225C25.5283 7.9475 21.7033 4.1225 17.0283 4.1225Z" stroke="white" stroke-miterlimit="10" stroke-linecap="round"/>
<path d="M19.6491 4.53334C19.21 4.40584 18.7566 4.30667 18.2891 4.25C16.9291 4.08 15.6258 4.17917 14.4075 4.53334C14.8183 3.485 15.8383 2.74834 17.0283 2.74834C18.2183 2.74834 19.2383 3.485 19.6491 4.53334Z" stroke="white" stroke-miterlimit="10" stroke-linecap="round" stroke-linejoin="round"/>
<path d="M21.2783 27.0017C21.2783 29.3392 19.3658 31.2517 17.0283 31.2517C15.8667 31.2517 14.79 30.77 14.025 30.005C13.26 29.24 12.7783 28.1633 12.7783 27.0017" stroke="white" stroke-miterlimit="10"/>
</svg>
