<svg width="16" height="16" viewBox="0 0 16 16" fill="none" xmlns="http://www.w3.org/2000/svg">
<path fill-rule="evenodd" clip-rule="evenodd" d="M1.09992 6.99916C5.39487 4.96698 8.25885 3.62725 9.69185 2.97996C13.7834 1.13181 14.6335 0.810763 15.1877 0.800162C15.3095 0.79783 15.5821 0.830633 15.7586 0.986183C15.9076 1.11753 15.9486 1.29495 15.9683 1.41948C15.9879 1.54401 16.0123 1.82769 15.9929 2.04935C15.7712 4.57933 14.8118 10.7189 14.3237 13.5525C14.1172 14.7515 13.7105 15.1536 13.3169 15.1929C12.4613 15.2784 11.8116 14.5789 10.9829 13.989C9.68624 13.0659 8.9537 12.4912 7.69503 11.5904C6.24043 10.5495 7.18338 9.9773 8.01236 9.04224C8.22931 8.79753 11.999 5.07386 12.0719 4.73606C12.0811 4.69381 12.0895 4.53634 12.0034 4.45318C11.9172 4.37003 11.7901 4.39846 11.6983 4.42108C11.5683 4.45313 9.4968 5.94006 5.48389 8.88185C4.89591 9.32033 4.36333 9.53397 3.88616 9.52277C3.36012 9.51043 2.34822 9.19976 1.59598 8.9342C0.673328 8.60849 -0.0599784 8.43629 0.00387615 7.88313C0.0371355 7.59501 0.402482 7.30035 1.09992 6.99916Z" fill="#748BFF"/>
</svg>
