<svg width="80" height="80" viewBox="0 0 80 80" fill="none" xmlns="http://www.w3.org/2000/svg">
<g style="mix-blend-mode:luminosity" opacity="0.7">
<path d="M28.1211 69.6812L29.1855 62.6528L26.8145 62.5957H15.4927L23.3607 10.7335C23.3852 10.577 23.4645 10.431 23.5805 10.3273C23.6965 10.2236 23.8451 10.1665 23.9998 10.1665H43.0899C49.4275 10.1665 53.8012 11.5375 56.0847 14.2435C57.1552 15.5129 57.837 16.8394 58.1667 18.2993C58.5126 19.831 58.5187 21.6611 58.1809 23.8932L58.1565 24.0561V25.4863L59.227 26.1168C60.1286 26.614 60.845 27.1831 61.3945 27.8347C62.3103 28.9201 62.9026 30.2995 63.1529 31.935C63.4114 33.6169 63.3259 35.6184 62.9026 37.8843C62.4141 40.4909 61.6245 42.761 60.558 44.6186C59.577 46.3302 58.3274 47.7498 56.8438 48.85C55.4273 49.8952 53.7442 50.6885 51.8413 51.1963C49.9974 51.6956 47.895 51.9474 45.5891 51.9474H44.1035C43.0411 51.9474 42.0092 52.3451 41.1992 53.0581C40.3872 53.7859 39.8499 54.7803 39.685 55.8678L39.5731 56.5004L37.6926 68.8878L37.6071 69.3427C37.5847 69.4866 37.5461 69.5585 37.4891 69.6072C37.4382 69.6516 37.3649 69.6812 37.2937 69.6812H28.1211Z" fill="#253B80"/>
<path d="M60.2404 24.2212C60.1835 24.5999 60.1183 24.9871 60.0451 25.3848C57.5275 38.8217 48.9146 43.4635 37.9144 43.4635H32.3135C30.9682 43.4635 29.8346 44.479 29.625 45.8585L26.7574 64.7644L25.9454 70.1235C25.809 71.029 26.4806 71.8456 27.3598 71.8456H37.2936C38.47 71.8456 39.4692 70.9571 39.6544 69.7511L39.7521 69.2264L41.6225 56.8876L41.7426 56.2106C41.9257 55.0004 42.927 54.1118 44.1034 54.1118H45.5891C55.2135 54.1118 62.7478 50.0497 64.9499 38.2948C65.8698 33.3843 65.3936 29.2841 62.9595 26.4004C62.2227 25.5308 61.3089 24.8094 60.2404 24.2212Z" fill="#179BD7"/>
<path d="M57.6069 23.1293C57.2223 23.013 56.8254 22.9072 56.4183 22.812C56.0093 22.7189 55.59 22.6364 55.1586 22.5644C53.6484 22.3105 51.9938 22.1899 50.2212 22.1899H35.2584C34.8901 22.1899 34.54 22.2767 34.2266 22.4332C33.5366 22.7781 33.0238 23.4572 32.8996 24.2887L29.7166 45.2469L29.625 45.8583C29.8346 44.4789 30.9682 43.4633 32.3135 43.4633H37.9144C48.9146 43.4633 57.5275 38.8194 60.0451 25.3847C60.1204 24.9869 60.1835 24.5997 60.2404 24.221C59.6034 23.8698 58.9135 23.5694 58.1707 23.3134C57.9875 23.2499 57.7982 23.1886 57.6069 23.1293Z" fill="#222D65"/>
<path d="M32.8998 24.2888C33.024 23.4573 33.5369 22.7782 34.2268 22.4354C34.5422 22.2789 34.8903 22.1921 35.2586 22.1921H50.2214C51.994 22.1921 53.6487 22.3127 55.1588 22.5666C55.5902 22.6385 56.0095 22.7211 56.4186 22.8141C56.8256 22.9094 57.2225 23.0151 57.6071 23.1315C57.7984 23.1907 57.9877 23.2521 58.1729 23.3135C58.9157 23.5695 59.6057 23.872 60.2427 24.2211C60.9916 19.2555 60.2366 15.8746 57.6539 12.8132C54.8067 9.44291 49.6678 8 43.0921 8H24.002C22.6587 8 21.5129 9.01554 21.3053 10.3971L13.3538 62.7925C13.1971 63.8292 13.9664 64.7643 14.9718 64.7643H26.7576L29.7168 45.2469L32.8998 24.2888Z" fill="#253B80"/>
</g>
</svg>
