<svg width="38" height="38" viewBox="0 0 38 38" fill="none" xmlns="http://www.w3.org/2000/svg">
<path d="M28.5 11.3365C28.405 11.3207 28.2941 11.3207 28.1991 11.3365C26.0141 11.2573 24.2725 9.46817 24.2725 7.25151C24.2725 4.98734 26.0933 3.1665 28.3575 3.1665C30.6216 3.1665 32.4425 5.00317 32.4425 7.25151C32.4266 9.46817 30.685 11.2573 28.5 11.3365Z" stroke="url(#paint0_linear_1829_36576)" stroke-linecap="round" stroke-linejoin="round"/>
<path d="M26.869 22.8631C29.0382 23.2272 31.429 22.8472 33.1074 21.7231C35.3399 20.2347 35.3399 17.7964 33.1074 16.3081C31.4132 15.1839 28.9907 14.8039 26.8215 15.1839" stroke="url(#paint1_linear_1829_36576)" stroke-linecap="round" stroke-linejoin="round"/>
<path d="M9.45251 11.3365C9.54751 11.3207 9.65834 11.3207 9.75334 11.3365C11.9383 11.2573 13.68 9.46817 13.68 7.25151C13.68 4.98734 11.8592 3.1665 9.59501 3.1665C7.33085 3.1665 5.51001 5.00317 5.51001 7.25151C5.52584 9.46817 7.26751 11.2573 9.45251 11.3365Z" stroke="url(#paint2_linear_1829_36576)" stroke-linecap="round" stroke-linejoin="round"/>
<path d="M11.0834 22.8631C8.91419 23.2272 6.52336 22.8472 4.84503 21.7231C2.61253 20.2347 2.61253 17.7964 4.84503 16.3081C6.5392 15.1839 8.96169 14.8039 11.1309 15.1839" stroke="url(#paint3_linear_1829_36576)" stroke-linecap="round" stroke-linejoin="round"/>
<path d="M18.9997 23.1644C18.9047 23.1486 18.7939 23.1486 18.6989 23.1644C16.5139 23.0852 14.7722 21.2961 14.7722 19.0794C14.7722 16.8152 16.593 14.9944 18.8572 14.9944C21.1214 14.9944 22.9422 16.8311 22.9422 19.0794C22.9264 21.2961 21.1847 23.1011 18.9997 23.1644Z" stroke="url(#paint4_linear_1829_36576)" stroke-linecap="round" stroke-linejoin="round"/>
<path d="M14.3926 28.1519C12.1601 29.6403 12.1601 32.0786 14.3926 33.5669C16.926 35.2611 21.0743 35.2611 23.6076 33.5669C25.8401 32.0786 25.8401 29.6403 23.6076 28.1519C21.0901 26.4736 16.926 26.4736 14.3926 28.1519Z" stroke="url(#paint5_linear_1829_36576)" stroke-linecap="round" stroke-linejoin="round"/>
<defs>
<linearGradient id="paint0_linear_1829_36576" x1="24.7143" y1="10.6297" x2="32.2362" y2="3.13841" gradientUnits="userSpaceOnUse">
<stop stop-color="#7AAFFF"/>
<stop offset="1" stop-color="#642DFF"/>
</linearGradient>
<linearGradient id="paint1_linear_1829_36576" x1="27.252" y1="22.3085" x2="34.5766" y2="15.0095" gradientUnits="userSpaceOnUse">
<stop stop-color="#7AAFFF"/>
<stop offset="1" stop-color="#642DFF"/>
</linearGradient>
<linearGradient id="paint2_linear_1829_36576" x1="5.9518" y1="10.6297" x2="13.4738" y2="3.1384" gradientUnits="userSpaceOnUse">
<stop stop-color="#7AAFFF"/>
<stop offset="1" stop-color="#642DFF"/>
</linearGradient>
<linearGradient id="paint3_linear_1829_36576" x1="3.6011" y1="22.3085" x2="10.9257" y2="15.0095" gradientUnits="userSpaceOnUse">
<stop stop-color="#7AAFFF"/>
<stop offset="1" stop-color="#642DFF"/>
</linearGradient>
<linearGradient id="paint4_linear_1829_36576" x1="15.214" y1="22.4576" x2="22.736" y2="14.9663" gradientUnits="userSpaceOnUse">
<stop stop-color="#7AAFFF"/>
<stop offset="1" stop-color="#642DFF"/>
</linearGradient>
<linearGradient id="paint5_linear_1829_36576" x1="13.3976" y1="34.1503" x2="20.0171" y2="23.7245" gradientUnits="userSpaceOnUse">
<stop stop-color="#7AAFFF"/>
<stop offset="1" stop-color="#642DFF"/>
</linearGradient>
</defs>
</svg>
