<svg width="24" height="24" viewBox="0 0 24 24" fill="none" xmlns="http://www.w3.org/2000/svg">
<g clip-path="url(#clip0_1369_62941)">
<g filter="url(#filter0_d_1369_62941)">
<path fill-rule="evenodd" clip-rule="evenodd" d="M12.9446 5.38878C12.9446 4.86718 12.5217 4.44434 12.0001 4.44434C11.4785 4.44434 11.0557 4.86718 11.0557 5.38878V11.0557H5.38878C4.86718 11.0557 4.44434 11.4785 4.44434 12.0001C4.44434 12.5217 4.86718 12.9446 5.38878 12.9446H11.0557V18.611C11.0557 19.1326 11.4785 19.5554 12.0001 19.5554C12.5217 19.5554 12.9446 19.1326 12.9446 18.611V12.9446H18.611C19.1326 12.9446 19.5554 12.5217 19.5554 12.0001C19.5554 11.4785 19.1326 11.0557 18.611 11.0557H12.9446V5.38878Z" fill="white"/>
</g>
</g>
<defs>
<filter id="filter0_d_1369_62941" x="1.77767" y="4.44434" width="20.4447" height="20.4447" filterUnits="userSpaceOnUse" color-interpolation-filters="sRGB">
<feFlood flood-opacity="0" result="BackgroundImageFix"/>
<feColorMatrix in="SourceAlpha" type="matrix" values="0 0 0 0 0 0 0 0 0 0 0 0 0 0 0 0 0 0 127 0" result="hardAlpha"/>
<feOffset dy="2.66667"/>
<feGaussianBlur stdDeviation="1.33333"/>
<feComposite in2="hardAlpha" operator="out"/>
<feColorMatrix type="matrix" values="0 0 0 0 0.3125 0 0 0 0 0.426259 0 0 0 0 1 0 0 0 0.6 0"/>
<feBlend mode="normal" in2="BackgroundImageFix" result="effect1_dropShadow_1369_62941"/>
<feBlend mode="normal" in="SourceGraphic" in2="effect1_dropShadow_1369_62941" result="shape"/>
</filter>
<clipPath id="clip0_1369_62941">
<rect width="22.6667" height="22.6667" fill="white" transform="translate(0.666504 0.666504)"/>
</clipPath>
</defs>
</svg>
