<svg width="22" height="22" viewBox="0 0 22 22" fill="none" xmlns="http://www.w3.org/2000/svg">
<path fill-rule="evenodd" clip-rule="evenodd" d="M11.9165 4.58317C11.9165 4.07691 11.5061 3.6665 10.9998 3.6665C10.4936 3.6665 10.0832 4.07691 10.0832 4.58317V10.0832H4.58317C4.07691 10.0832 3.6665 10.4936 3.6665 10.9998C3.6665 11.5061 4.07691 11.9165 4.58317 11.9165H10.0832V17.4165C10.0832 17.9228 10.4936 18.3332 10.9998 18.3332C11.5061 18.3332 11.9165 17.9228 11.9165 17.4165V11.9165H17.4165C17.9228 11.9165 18.3332 11.5061 18.3332 10.9998C18.3332 10.4936 17.9228 10.0832 17.4165 10.0832H11.9165V4.58317Z" fill="white"/>
</svg>
