<svg width="34" height="34" viewBox="0 0 34 34" fill="none" xmlns="http://www.w3.org/2000/svg">
<path d="M12.9766 15.3991C12.835 15.385 12.665 15.385 12.5091 15.3991C9.13746 15.2858 6.45996 12.5233 6.45996 9.12331C6.45996 5.65248 9.26496 2.83331 12.75 2.83331C16.2208 2.83331 19.04 5.65248 19.04 9.12331C19.0258 12.5233 16.3483 15.2858 12.9766 15.3991Z" stroke="white" stroke-linecap="round" stroke-linejoin="round"/>
<path d="M23.2474 5.66669C25.9957 5.66669 28.2057 7.89085 28.2057 10.625C28.2057 13.3025 26.0807 15.4842 23.4316 15.5834C23.3182 15.5692 23.1907 15.5692 23.0632 15.5834" stroke="white" stroke-linecap="round" stroke-linejoin="round"/>
<path d="M5.89327 20.6267C2.46494 22.9217 2.46494 26.6617 5.89327 28.9425C9.7891 31.5492 16.1783 31.5492 20.0741 28.9425C23.5024 26.6475 23.5024 22.9075 20.0741 20.6267C16.1924 18.0342 9.80327 18.0342 5.89327 20.6267Z" stroke="white" stroke-linecap="round" stroke-linejoin="round"/>
<path d="M25.9817 28.3333C27.0017 28.1208 27.965 27.71 28.7584 27.1008C30.9684 25.4433 30.9684 22.7091 28.7584 21.0516C27.9792 20.4566 27.03 20.06 26.0242 19.8333" stroke="white" stroke-linecap="round" stroke-linejoin="round"/>
</svg>
