<svg width="34" height="34" viewBox="0 0 34 34" fill="none" xmlns="http://www.w3.org/2000/svg">
<path d="M12.9767 15.3992C12.835 15.385 12.665 15.385 12.5092 15.3992C9.13752 15.2858 6.46002 12.5233 6.46002 9.12334C6.46002 5.65251 9.26502 2.83334 12.75 2.83334C16.2209 2.83334 19.04 5.65251 19.04 9.12334C19.0259 12.5233 16.3484 15.2858 12.9767 15.3992Z" stroke="white" stroke-width="1.5" stroke-linecap="round" stroke-linejoin="round"/>
<path d="M23.2475 5.66666C25.9959 5.66666 28.2059 7.89082 28.2059 10.625C28.2059 13.3025 26.0809 15.4842 23.4317 15.5833C23.3184 15.5692 23.1909 15.5692 23.0634 15.5833" stroke="white" stroke-width="1.5" stroke-linecap="round" stroke-linejoin="round"/>
<path d="M5.89333 20.6267C2.465 22.9217 2.465 26.6617 5.89333 28.9425C9.78917 31.5492 16.1783 31.5492 20.0742 28.9425C23.5025 26.6475 23.5025 22.9075 20.0742 20.6267C16.1925 18.0342 9.80333 18.0342 5.89333 20.6267Z" stroke="white" stroke-width="1.5" stroke-linecap="round" stroke-linejoin="round"/>
<path d="M25.9817 28.3333C27.0017 28.1208 27.965 27.71 28.7584 27.1008C30.9684 25.4433 30.9684 22.7091 28.7584 21.0516C27.9792 20.4566 27.03 20.06 26.0242 19.8333" stroke="white" stroke-width="1.5" stroke-linecap="round" stroke-linejoin="round"/>
</svg>
