<svg width="16" height="16" viewBox="0 0 16 16" fill="none" xmlns="http://www.w3.org/2000/svg">
<path fill-rule="evenodd" clip-rule="evenodd" d="M1.09992 6.99891C5.39488 4.96674 8.25885 3.62701 9.69185 2.97971C13.7834 1.13156 14.6335 0.810519 15.1877 0.799918C15.3095 0.797586 15.5821 0.830388 15.7586 0.985939C15.9076 1.11728 15.9486 1.29471 15.9683 1.41924C15.9879 1.54377 16.0123 1.82745 15.9929 2.04911C15.7712 4.57908 14.8118 10.7187 14.3237 13.5523C14.1172 14.7513 13.7105 15.1533 13.3169 15.1927C12.4613 15.2782 11.8116 14.5786 10.9829 13.9887C9.68624 13.0656 8.9537 12.491 7.69503 11.5902C6.24043 10.5492 7.18338 9.97705 8.01236 9.042C8.22931 8.79729 11.999 5.07361 12.0719 4.73582C12.0811 4.69357 12.0895 4.53609 12.0034 4.45294C11.9172 4.36978 11.7901 4.39822 11.6983 4.42083C11.5683 4.45289 9.4968 5.93981 5.48389 8.8816C4.89591 9.32008 4.36333 9.53372 3.88616 9.52253C3.36012 9.51018 2.34822 9.19951 1.59598 8.93396C0.673328 8.60825 -0.0599784 8.43604 0.00387615 7.88289C0.0371355 7.59477 0.402482 7.30011 1.09992 6.99891Z" fill="white"/>
</svg>
