<svg width="80" height="80" viewBox="0 0 80 80" fill="none" xmlns="http://www.w3.org/2000/svg">
<g style="mix-blend-mode:luminosity" opacity="0.7">
<path d="M21.5462 49.3355C21.9282 46.1505 23.2254 44.3673 25.6699 42.5393C29.1676 40.0635 33.5367 41.464 33.5367 41.464V33.1559C34.5989 33.1286 35.6615 33.192 36.7121 33.3454V44.037C36.7121 44.037 32.3443 42.6366 28.8466 45.1136C26.4034 46.9404 25.1036 48.7249 24.7229 51.9098C24.711 53.6393 25.0333 55.9 26.5175 57.8548C26.1505 57.6653 25.7765 57.4494 25.3954 57.207C22.1259 54.9962 21.5303 51.6794 21.5462 49.3355ZM54.7521 17.7943C52.3461 15.1394 51.4362 12.4588 51.1072 10.5757H54.134C54.134 10.5757 53.5305 15.5131 57.9288 20.3687L57.9898 20.434C56.8044 19.6831 55.7173 18.7968 54.7521 17.7943ZM69.333 25.3215V35.7981C69.333 35.7981 65.4706 35.6458 62.6123 34.9135C58.6212 33.8894 56.056 32.3187 56.056 32.3187C56.056 32.3187 54.2839 31.1986 54.1407 31.1205V52.7547C54.1407 53.9593 53.8131 56.9676 52.8143 59.4767C51.5105 62.759 49.4983 64.9134 49.1283 65.3538C49.1283 65.3538 46.6811 68.2661 42.3638 70.2272C38.4722 71.9964 35.0554 71.9516 34.0341 71.9964C34.0341 71.9964 28.1277 72.2319 22.8129 68.7538C21.6636 67.9872 20.5908 67.1189 19.6084 66.1603L19.6349 66.1795C24.9511 69.6576 30.8561 69.422 30.8561 69.422C31.8787 69.3772 35.2955 69.422 39.1858 67.6529C43.4991 65.6917 45.9503 62.7794 45.9503 62.7794C46.3164 62.3391 48.3378 60.1846 49.6363 56.9011C50.6324 54.3933 50.9627 51.3837 50.9627 50.1791V28.5474C51.1059 28.6268 52.8766 29.7469 52.8766 29.7469C52.8766 29.7469 55.4432 31.3189 59.4342 32.3418C62.2939 33.074 66.155 33.2263 66.155 33.2263V25.0168C67.4761 25.3151 68.6022 25.3958 69.333 25.3215Z" fill="#FD355A"/>
<path d="M66.1569 25.0168V33.2238C66.1569 33.2238 62.2958 33.0714 59.4361 32.3392C55.4451 31.3151 52.8785 29.7444 52.8785 29.7444C52.8785 29.7444 51.1078 28.6243 50.9646 28.5449V50.1817C50.9646 51.3863 50.6369 54.3959 49.6382 56.9036C48.3343 60.1872 46.3222 62.3416 45.9522 62.782C45.9522 62.782 43.5037 65.6943 39.1876 67.6555C35.2974 69.4246 31.8806 69.3798 30.858 69.4246C30.858 69.4246 24.9529 69.6601 19.6368 66.182L19.6103 66.1628C19.049 65.6156 18.5207 65.0377 18.0279 64.4321C16.3315 62.3493 15.2916 59.8863 15.0303 59.1836C15.0298 59.1806 15.0298 59.1776 15.0303 59.1746C14.6098 57.9533 13.7265 55.0206 13.8472 52.18C14.0607 47.1682 15.8115 44.0921 16.2744 43.3214C17.5004 41.2199 19.0949 39.3397 20.9871 37.7644C22.6567 36.4051 24.5493 35.3235 26.587 34.5641C28.7899 33.6724 31.1488 33.1945 33.5373 33.1559V41.464C33.5373 41.464 29.1682 40.0686 25.6718 42.5393C23.2273 44.3673 21.9301 46.1505 21.5481 49.3355C21.5322 51.6794 22.1277 54.9962 25.3946 57.2083C25.7757 57.4515 26.1498 57.6675 26.5167 57.8561C27.0875 58.6031 27.7821 59.2541 28.5726 59.7827C31.7639 61.8168 34.4379 61.9589 37.8573 60.6378C40.1373 59.7545 41.8537 57.7639 42.6495 55.5582C43.1495 54.1808 43.1429 52.7944 43.1429 51.3607V10.5757H51.1012C51.4301 12.4588 52.34 15.1394 54.7461 17.7943C55.7112 18.7968 56.7983 19.6831 57.9838 20.434C58.3339 20.7988 60.1245 22.6025 62.4231 23.7098C63.6117 24.2822 64.8645 24.7208 66.1569 25.0168Z" fill="black"/>
<path d="M26.5868 34.5645C24.549 35.3239 22.6565 36.4055 20.9868 37.7648C19.0941 39.3437 17.4999 41.2279 16.2755 43.3334C15.8126 44.1015 14.0618 47.1802 13.8482 52.1919C13.7275 55.0325 14.6109 57.9653 15.0313 59.1866C15.0309 59.1895 15.0309 59.1925 15.0313 59.1955C15.2966 59.8919 16.3325 62.3549 18.029 64.4441C18.5217 65.0497 19.0501 65.6275 19.6113 66.1748C17.813 64.9744 16.2092 63.5232 14.8523 61.8684C13.1704 59.8036 12.1332 57.3662 11.8626 56.6468C11.8623 56.6417 11.8623 56.6365 11.8626 56.6314V56.6225C11.4408 55.4025 10.5548 52.4684 10.6782 49.624C10.8917 44.6123 12.6425 41.5361 13.1054 40.7655C14.3295 38.6597 15.9237 36.7755 17.8167 35.1969C19.4861 33.8371 21.3787 32.7555 23.4167 31.9966C24.6879 31.4875 26.0122 31.112 27.3667 30.8765C29.4079 30.5326 31.4927 30.5028 33.5436 30.7881V33.1564C31.1529 33.1941 28.7917 33.6721 26.5868 34.5645Z" fill="#33F3ED"/>
<path d="M51.1073 10.5756H43.149V51.3619C43.149 52.7956 43.149 54.1782 42.6556 55.5594C41.8518 57.7638 40.1421 59.7544 37.8634 60.6377C34.4427 61.9639 31.7687 61.8167 28.5788 59.7826C27.7869 59.2564 27.0905 58.6076 26.5176 57.8624C29.2353 59.2616 31.6679 59.2373 34.6814 58.0698C36.9588 57.1865 38.6712 55.1959 39.4723 52.9902C39.9737 51.6128 39.9671 50.2264 39.9671 48.7939V8H50.9561C50.9561 8 50.8328 9.01386 51.1073 10.5756ZM66.1564 22.7471V25.0168C64.8663 24.7202 63.6157 24.2817 62.4293 23.7098C60.1307 22.6025 58.3401 20.7988 57.9899 20.4339C58.3962 20.6914 58.8179 20.9256 59.2526 21.1354C62.0473 22.4821 64.7995 22.8841 66.1564 22.7471Z" fill="#33F3ED"/>
</g>
</svg>
