<svg width="80" height="80" viewBox="0 0 80 80" fill="none" xmlns="http://www.w3.org/2000/svg">
<g style="mix-blend-mode:luminosity" opacity="0.7">
<path d="M57.5214 44.4406C54.5795 44.4406 51.8107 43.1948 49.3159 41.1711L49.9216 38.3049L49.936 38.2041C50.4912 35.1651 52.2001 30.0448 57.5142 30.0448C61.4944 30.0448 64.7319 33.2783 64.7319 37.2535C64.7391 41.2215 61.5016 44.4406 57.5214 44.4406ZM57.5214 22.7497C50.7364 22.7497 45.4944 27.1426 43.3456 34.3801C40.0937 29.4903 37.6205 23.6283 36.1785 18.6881H28.8815V37.6496C28.8815 41.4016 25.8387 44.4406 22.082 44.4406C18.3254 44.4406 15.2826 41.4016 15.2826 37.6496V18.6665H8V37.628C8 45.3912 14.3164 51.7645 22.0892 51.7645C29.8621 51.7645 36.1785 45.384 36.1785 37.628V34.445C37.5989 37.3976 39.3294 40.3934 41.4421 43.0147L36.9788 63.9998H44.4344L47.6719 48.7903C50.5128 50.6051 53.7647 51.7429 57.4998 51.7429C65.4962 51.7429 72 45.2112 72 37.2103C72.0072 29.2455 65.5178 22.7497 57.5214 22.7497Z" fill="#6FDA44"/>
</g>
</svg>
