<svg width="34" height="34" viewBox="0 0 34 34" fill="none" xmlns="http://www.w3.org/2000/svg">
<path d="M15.2313 23.8855V26.7614C15.2313 29.198 12.9646 31.1672 10.1737 31.1672C7.38291 31.1672 5.10205 29.198 5.10205 26.7614V23.8855C5.10205 26.3222 7.36874 28.0505 10.1737 28.0505C12.9646 28.0505 15.2313 26.308 15.2313 23.8855Z" stroke="white" stroke-linecap="round" stroke-linejoin="round"/>
<path d="M15.2292 19.989C15.2292 20.6974 15.0309 21.349 14.6909 21.9157C13.8551 23.2899 12.1409 24.154 10.1575 24.154C8.17421 24.154 6.46002 23.2757 5.62419 21.9157C5.28419 21.349 5.08594 20.6974 5.08594 19.989C5.08594 18.7707 5.65257 17.6799 6.55924 16.8865C7.48007 16.079 8.74086 15.5974 10.1434 15.5974C11.5459 15.5974 12.8067 16.0932 13.7276 16.8865C14.6626 17.6657 15.2292 18.7707 15.2292 19.989Z" stroke="white" stroke-linecap="round" stroke-linejoin="round"/>
<path d="M15.2313 19.9891V23.8849C15.2313 26.3216 12.9646 28.0499 10.1737 28.0499C7.38291 28.0499 5.10205 26.3074 5.10205 23.8849V19.9891C5.10205 17.5524 7.36874 15.5833 10.1737 15.5833C11.5762 15.5833 12.8371 16.079 13.758 16.8724C14.6646 17.6657 15.2313 18.7707 15.2313 19.9891Z" stroke="white" stroke-linecap="round" stroke-linejoin="round"/>
<path d="M31.1666 15.5409V18.4593C31.1666 19.2385 30.5433 19.8759 29.75 19.9042H26.9733C25.4433 19.9042 24.0408 18.7851 23.9133 17.2551C23.8283 16.3626 24.1683 15.5267 24.7633 14.9459C25.2874 14.4076 26.01 14.0959 26.8033 14.0959H29.75C30.5433 14.1243 31.1666 14.7617 31.1666 15.5409Z" stroke="white" stroke-linecap="round" stroke-linejoin="round"/>
<path d="M2.8335 14.8749V12.0416C2.8335 8.18825 5.15683 5.49658 8.76933 5.04325C9.13767 4.98658 9.52016 4.95825 9.91683 4.95825H22.6668C23.0352 4.95825 23.3893 4.9724 23.7293 5.02907C27.3843 5.45407 29.7502 8.15992 29.7502 12.0416V14.0958H26.8035C26.0101 14.0958 25.2876 14.4074 24.7635 14.9457C24.1685 15.5266 23.8285 16.3624 23.9135 17.2549C24.041 18.7849 25.4435 19.9041 26.9735 19.9041H29.7502V21.9583C29.7502 26.2083 26.9168 29.0416 22.6668 29.0416H19.1252" stroke="white" stroke-linecap="round" stroke-linejoin="round"/>
</svg>
