<svg width="34" height="34" viewBox="0 0 34 34" fill="none" xmlns="http://www.w3.org/2000/svg">
<path d="M15.2315 23.8855V26.7614C15.2315 29.198 12.9648 31.1672 10.174 31.1672C7.38315 31.1672 5.10229 29.198 5.10229 26.7614V23.8855C5.10229 26.3222 7.36899 28.0505 10.174 28.0505C12.9648 28.0505 15.2315 26.308 15.2315 23.8855Z" stroke="white" stroke-linecap="round" stroke-linejoin="round"/>
<path d="M15.2292 19.9892C15.2292 20.6975 15.0309 21.3491 14.6909 21.9158C13.8551 23.29 12.1409 24.1542 10.1575 24.1542C8.17421 24.1542 6.46002 23.2758 5.62419 21.9158C5.28419 21.3491 5.08594 20.6975 5.08594 19.9892C5.08594 18.7708 5.65257 17.68 6.55924 16.8867C7.48007 16.0792 8.74086 15.5975 10.1434 15.5975C11.5459 15.5975 12.8067 16.0933 13.7276 16.8867C14.6626 17.6658 15.2292 18.7708 15.2292 19.9892Z" stroke="white" stroke-linecap="round" stroke-linejoin="round"/>
<path d="M15.2315 19.9892V23.885C15.2315 26.3217 12.9648 28.05 10.174 28.05C7.38315 28.05 5.10229 26.3075 5.10229 23.885V19.9892C5.10229 17.5525 7.36899 15.5834 10.174 15.5834C11.5765 15.5834 12.8374 16.0792 13.7582 16.8725C14.6649 17.6658 15.2315 18.7709 15.2315 19.9892Z" stroke="white" stroke-linecap="round" stroke-linejoin="round"/>
<path d="M31.1666 15.5408V18.4592C31.1666 19.2383 30.5433 19.8758 29.75 19.9041H26.9733C25.4433 19.9041 24.0408 18.785 23.9133 17.255C23.8283 16.3625 24.1683 15.5266 24.7633 14.9458C25.2874 14.4075 26.01 14.0958 26.8033 14.0958H29.75C30.5433 14.1242 31.1666 14.7616 31.1666 15.5408Z" stroke="white" stroke-linecap="round" stroke-linejoin="round"/>
<path d="M2.83325 14.875V12.0417C2.83325 8.18837 5.15659 5.4967 8.76909 5.04337C9.13742 4.9867 9.51992 4.95837 9.91659 4.95837H22.6666C23.0349 4.95837 23.3891 4.97252 23.7291 5.02919C27.3841 5.45419 29.7499 8.16004 29.7499 12.0417V14.0959H26.8032C26.0099 14.0959 25.2874 14.4075 24.7632 14.9459C24.1682 15.5267 23.8283 16.3625 23.9133 17.255C24.0408 18.785 25.4432 19.9042 26.9732 19.9042H29.7499V21.9584C29.7499 26.2084 26.9166 29.0417 22.6666 29.0417H19.1249" stroke="white" stroke-linecap="round" stroke-linejoin="round"/>
</svg>
